<svg width="128" height="128" viewBox="0 0 128 128" fill="none" xmlns="http://www.w3.org/2000/svg">
  <rect width="128" height="128" rx="24" fill="#4F46E5"/>
  <path d="M64 32C46.3 32 32 46.3 32 64C32 81.7 46.3 96 64 96C81.7 96 96 81.7 96 64C96 46.3 81.7 32 64 32ZM64 88C50.7 88 40 77.3 40 64C40 50.7 50.7 40 64 40C77.3 40 88 50.7 88 64C88 77.3 77.3 88 64 88Z" fill="white"/>
  <circle cx="64" cy="64" r="12" fill="white"/>
  <path d="M52 52L44 44M76 52L84 44M52 76L44 84M76 76L84 84" stroke="white" stroke-width="4" stroke-linecap="round"/>
</svg>
